<?xml version="1.0" standalone="no"?>
<!DOCTYPE svg PUBLIC "-//W3C//DTD SVG 20010904//EN"
 "http://www.w3.org/TR/2001/REC-SVG-20010904/DTD/svg10.dtd">
<svg version="1.0" xmlns="http://www.w3.org/2000/svg"
 width="1017.000000pt" height="1017.000000pt" viewBox="0 0 1017.000000 1017.000000"
 preserveAspectRatio="xMidYMid meet">
<metadata>
Created by potrace 1.14, written by Peter Selinger 2001-2017
</metadata>
<g transform="translate(0.000000,1017.000000) scale(0.100000,-0.100000)"
fill="#000000" stroke="none">
<path d="M4987 10003 c-1 -1 -67 -2 -147 -4 -80 -1 -156 -6 -170 -11 -36 -14
-54 -17 -149 -24 -117 -8 -124 -9 -226 -28 -81 -16 -269 -51 -320 -60 -11 -2
-40 -10 -65 -17 -25 -6 -52 -13 -60 -14 -62 -8 -417 -128 -544 -184 -23 -10
-72 -31 -111 -46 -38 -16 -173 -81 -300 -145 -174 -88 -282 -151 -445 -260
-118 -79 -219 -147 -225 -151 -18 -15 -138 -107 -215 -166 -116 -88 -481 -448
-551 -545 -22 -29 -57 -74 -80 -100 -46 -54 -179 -230 -228 -303 -120 -177
-151 -225 -173 -265 -14 -25 -44 -76 -68 -115 -54 -88 -132 -247 -192 -390
-26 -60 -56 -131 -67 -158 -11 -26 -21 -51 -22 -55 0 -4 -6 -16 -12 -27 -6
-11 -12 -27 -13 -35 -2 -8 -7 -23 -13 -35 -14 -30 -24 -58 -28 -80 -1 -11 -7
-29 -13 -40 -14 -30 -65 -207 -90 -315 -13 -52 -28 -115 -36 -140 -7 -25 -15
-63 -18 -85 -11 -72 -17 -99 -26 -135 -5 -19 -12 -62 -15 -95 -4 -33 -11 -78
-16 -100 -19 -75 -23 -200 -23 -605 0 -387 6 -568 17 -587 3 -4 8 -35 11 -69
4 -33 9 -71 11 -85 2 -13 6 -41 9 -62 18 -151 124 -567 204 -807 84 -250 95
-276 233 -552 127 -255 158 -313 209 -388 164 -245 227 -332 268 -376 26 -28
59 -69 73 -92 13 -22 58 -76 99 -119 42 -43 87 -98 102 -123 32 -55 260 -280
283 -280 10 0 68 -50 131 -112 62 -61 127 -117 144 -124 17 -7 54 -35 83 -61
28 -27 66 -55 82 -63 17 -8 56 -38 87 -67 32 -28 67 -55 79 -58 12 -4 32 -17
46 -28 13 -12 50 -35 81 -52 148 -80 192 -105 252 -142 303 -185 998 -422
1430 -488 25 -4 54 -9 65 -11 58 -12 182 -26 270 -30 55 -2 137 -6 181 -8 45
-2 92 -10 104 -16 42 -23 384 -19 540 5 19 3 62 8 95 10 93 7 222 22 265 31
14 2 39 6 55 9 17 2 46 7 65 10 19 3 47 7 62 9 15 3 35 7 45 10 10 3 36 7 57
11 22 3 82 17 135 31 53 14 105 27 116 29 33 7 298 85 320 94 11 5 103 41 205
81 102 40 228 93 280 118 52 25 97 46 100 46 16 4 230 122 257 142 18 13 40
28 50 32 23 9 166 93 173 101 3 4 46 33 95 66 50 32 110 75 135 95 25 20 61
48 81 61 20 13 73 57 118 98 45 41 98 86 119 99 51 35 152 132 282 271 8 9 27
34 41 56 15 22 50 64 79 94 86 90 150 167 150 180 0 7 5 9 10 6 6 -3 10 1 10
9 0 8 8 21 19 28 10 7 19 16 20 20 1 4 17 24 35 45 37 41 146 201 146 214 0 4
3 9 8 11 39 17 357 604 449 828 73 179 204 597 243 775 55 257 55 258 65 379
3 38 11 79 18 90 19 33 17 1100 -2 1141 -8 17 -15 46 -16 65 -3 57 -16 152
-27 200 -5 25 -11 54 -14 65 -2 11 -6 31 -9 45 -2 14 -7 39 -10 55 -2 17 -19
84 -36 150 -17 66 -35 140 -40 165 -5 25 -16 62 -24 82 -8 20 -17 47 -19 60
-8 38 -92 271 -110 305 -9 18 -16 35 -15 38 5 28 -184 417 -275 567 -25 42
-46 79 -46 83 0 3 -8 18 -19 33 -34 50 -216 323 -226 340 -38 62 -57 87 -109
143 -32 35 -68 81 -80 101 -11 21 -129 145 -262 275 -248 245 -267 263 -282
263 -5 0 -37 27 -73 61 -35 33 -87 75 -114 93 -28 18 -68 49 -90 69 -22 21
-48 40 -57 43 -10 3 -18 10 -18 15 0 5 -4 9 -10 9 -10 0 -155 96 -178 117 -6
6 -21 15 -32 18 -11 3 -20 11 -20 16 0 5 -5 9 -10 9 -6 0 -34 16 -62 36 -47
32 -521 273 -593 301 -17 6 -61 24 -100 38 -38 15 -83 33 -100 41 -16 7 -86
31 -155 54 -69 22 -152 49 -186 60 -33 11 -68 20 -78 20 -9 0 -44 9 -76 20
-33 11 -84 22 -113 24 -61 5 -110 16 -117 27 -3 4 -36 9 -75 12 -38 3 -86 12
-105 20 -22 10 -83 17 -165 19 -96 4 -137 9 -155 21 -19 12 -57 16 -165 17
-77 1 -191 3 -253 4 -63 0 -114 0 -115 -1z m511 -279 c33 -13 83 -21 198 -30
35 -2 74 -8 86 -13 13 -5 57 -14 98 -20 41 -7 102 -19 135 -26 33 -8 76 -17
96 -19 20 -3 61 -12 90 -20 30 -9 68 -18 86 -21 60 -10 398 -127 518 -180 66
-29 142 -61 169 -70 27 -10 76 -36 110 -59 33 -23 95 -59 136 -81 41 -21 84
-44 95 -49 11 -6 34 -21 50 -32 17 -12 50 -32 75 -45 25 -14 59 -33 75 -44
136 -86 175 -113 212 -146 22 -21 58 -47 80 -58 21 -10 70 -52 108 -91 39 -39
95 -86 125 -105 65 -40 444 -419 485 -485 16 -24 49 -67 76 -95 26 -27 125
-167 220 -310 209 -314 359 -601 452 -865 33 -91 74 -205 92 -255 18 -49 52
-166 75 -260 45 -182 47 -190 54 -248 3 -21 7 -41 10 -45 5 -9 13 -71 22 -172
8 -87 8 -87 21 -120 14 -33 15 -94 16 -540 0 -425 -2 -479 -18 -535 -7 -22
-15 -76 -19 -120 -6 -82 -11 -112 -21 -145 -6 -19 -11 -43 -21 -95 -3 -16 -11
-48 -19 -70 -7 -22 -16 -58 -19 -80 -6 -38 -20 -92 -33 -125 -4 -8 -7 -26 -8
-41 -2 -30 -62 -216 -103 -319 -17 -41 -44 -110 -61 -152 -37 -94 -276 -575
-296 -598 -8 -9 -15 -19 -15 -22 0 -16 -246 -369 -291 -417 -28 -31 -63 -74
-77 -96 -14 -22 -67 -83 -118 -135 -51 -52 -125 -137 -164 -189 -39 -51 -85
-105 -101 -119 -17 -14 -36 -31 -43 -37 -6 -6 -40 -31 -76 -57 -36 -26 -81
-62 -100 -80 -19 -19 -51 -45 -70 -58 -19 -13 -64 -49 -100 -79 -88 -75 -246
-179 -440 -289 -25 -14 -74 -43 -110 -65 -80 -49 -197 -108 -270 -137 -30 -12
-102 -42 -160 -67 -58 -25 -118 -51 -135 -58 -176 -76 -460 -157 -703 -200
-356 -62 -363 -63 -487 -71 -127 -8 -134 -9 -170 -24 -16 -6 -79 -13 -138 -14
-92 -2 -112 0 -132 16 -20 16 -51 18 -271 23 -178 3 -261 9 -293 19 -26 8 -75
17 -111 21 -76 6 -101 11 -144 24 -17 6 -47 13 -66 16 -19 3 -60 12 -90 20
-30 8 -75 17 -100 20 -57 8 -185 40 -270 67 -76 25 -315 121 -380 153 -25 12
-76 35 -115 50 -38 15 -83 37 -100 49 -16 13 -95 56 -175 96 -80 40 -160 84
-178 97 -41 31 -151 93 -163 93 -6 0 -29 18 -52 41 -23 23 -65 54 -92 70 -28
15 -68 46 -90 69 -21 22 -45 40 -52 40 -7 0 -13 5 -13 10 0 6 -8 10 -17 10
-25 0 -682 662 -725 730 -19 30 -47 67 -61 83 -14 15 -87 118 -161 230 -98
147 -164 262 -244 422 -111 221 -157 319 -172 365 -5 14 -23 59 -40 100 -53
128 -135 395 -156 510 -2 14 -11 53 -20 88 -8 34 -17 74 -19 90 -2 15 -10 59
-19 97 -8 39 -17 104 -21 145 -4 41 -11 92 -16 112 -17 66 -20 174 -20 635 0
391 2 455 16 476 9 15 17 55 20 108 2 46 11 102 19 125 8 23 17 70 21 105 4
35 11 71 16 80 8 17 20 69 24 104 1 11 9 43 18 70 9 28 19 65 22 84 3 19 15
57 26 85 38 93 48 120 90 231 88 238 102 274 156 385 31 63 57 117 57 120 1 3
21 37 45 75 65 102 130 215 123 215 -3 0 6 12 20 28 14 15 34 43 43 62 10 19
33 54 52 77 19 23 36 49 37 57 1 9 22 37 47 63 50 53 86 103 73 103 -4 0 27
35 68 78 42 43 83 93 91 112 18 42 416 440 440 440 10 0 66 48 127 106 60 58
132 120 159 138 27 17 89 58 138 91 48 33 113 73 143 89 30 15 78 44 107 62
28 19 56 34 61 34 5 0 15 7 22 15 7 9 15 14 17 11 4 -4 58 27 207 117 32 20
80 44 107 52 27 9 80 32 118 50 90 44 420 162 506 181 6 1 55 13 110 28 55 14
111 27 125 30 14 2 48 9 75 16 28 6 68 14 90 16 22 3 72 12 110 19 39 7 99 17
135 20 36 4 72 8 80 10 8 2 33 6 56 9 22 4 60 10 85 14 24 5 206 9 404 9 277
0 368 -3 393 -13z"/>
<path d="M5329 9509 c-5 -10 -6 -24 -3 -32 6 -17 73 -47 104 -47 39 0 71 89
33 91 -99 7 -125 5 -134 -12z"/>
<path d="M5691 9481 c-5 -4 -8 -15 -6 -26 2 -11 4 -26 4 -32 2 -21 49 -45 94
-47 34 -2 46 2 64 23 23 26 30 56 15 65 -24 15 -153 28 -171 17z"/>
<path d="M6053 9399 c-28 -28 -14 -49 49 -78 34 -15 71 -26 83 -23 19 3 45 42
45 68 0 28 -154 57 -177 33z"/>
<path d="M6435 9304 c-13 -14 -22 -33 -21 -42 3 -16 106 -79 106 -64 0 3 5 1
11 -5 18 -18 47 -3 58 29 16 46 16 47 -46 75 -77 35 -82 35 -108 7z"/>
<path d="M4837 9284 c-1 -1 -49 -4 -107 -8 -58 -3 -116 -8 -130 -11 -25 -4
-118 -19 -175 -29 -233 -38 -633 -143 -750 -197 -11 -5 -49 -20 -85 -33 -86
-32 -165 -68 -378 -175 -191 -95 -252 -130 -431 -251 -167 -112 -204 -140
-263 -196 -29 -28 -78 -68 -108 -89 -74 -52 -284 -259 -319 -315 -15 -25 -57
-76 -93 -115 -106 -116 -325 -419 -419 -582 -13 -22 -44 -76 -69 -120 -25 -43
-58 -105 -72 -138 -15 -33 -47 -107 -73 -165 -39 -89 -59 -137 -112 -280 -3
-8 -8 -23 -10 -33 -1 -10 -10 -31 -18 -47 -9 -17 -16 -33 -16 -37 0 -17 -11
-59 -19 -78 -11 -23 -58 -204 -66 -250 -3 -16 -9 -43 -14 -60 -9 -31 -17 -80
-26 -155 -3 -25 -9 -61 -15 -80 -18 -67 -23 -208 -23 -595 1 -432 3 -506 16
-550 10 -32 13 -47 23 -135 3 -30 13 -89 21 -130 9 -41 17 -89 19 -106 3 -18
15 -67 29 -110 13 -44 32 -106 41 -139 67 -234 113 -350 245 -620 107 -219
250 -465 303 -524 15 -17 43 -55 61 -84 19 -28 47 -65 62 -82 16 -16 43 -53
61 -80 40 -62 559 -579 592 -590 12 -4 52 -35 87 -69 36 -33 86 -74 113 -91
83 -52 165 -107 186 -125 11 -9 49 -32 85 -51 36 -18 85 -48 110 -65 104 -74
363 -191 550 -250 47 -15 153 -49 235 -76 142 -46 338 -100 415 -113 19 -3 53
-10 75 -15 92 -20 151 -26 295 -30 40 -2 75 -9 90 -19 37 -23 549 -23 596 0
18 9 56 17 85 18 30 1 97 4 149 6 83 2 188 21 311 55 19 5 78 19 131 29 132
28 680 211 775 259 145 74 208 108 253 137 25 16 70 42 100 58 84 46 347 222
378 254 10 9 37 29 62 45 24 16 102 85 173 153 70 69 133 125 140 125 7 0 23
7 35 16 21 14 22 18 9 37 -8 12 -40 48 -71 80 -46 46 -60 55 -74 48 -9 -6 -60
-53 -112 -107 -52 -53 -129 -121 -170 -152 -41 -30 -82 -62 -91 -71 -63 -62
-272 -206 -388 -268 -443 -232 -809 -380 -1091 -438 -8 -2 -37 -9 -65 -15 -58
-13 -64 -15 -125 -26 -25 -4 -47 -8 -50 -9 -30 -7 -98 -16 -153 -21 -118 -9
-141 -12 -172 -25 -34 -13 -553 -21 -645 -9 -138 19 -341 50 -405 64 -39 8
-82 17 -95 19 -160 30 -464 129 -648 211 -53 23 -113 48 -132 55 -67 25 -205
95 -260 132 -30 20 -71 44 -90 54 -49 24 -343 221 -371 248 -13 13 -42 34 -64
47 -51 31 -575 551 -599 595 -10 18 -36 53 -57 77 -21 23 -51 61 -66 83 -15
22 -44 60 -64 85 -20 25 -48 67 -63 93 -29 54 -45 79 -94 156 -64 99 -252 481
-275 561 -6 19 -11 37 -12 40 -1 3 -4 12 -8 20 -13 34 -99 295 -103 313 -2 11
-8 34 -13 51 -6 17 -13 49 -16 71 -3 22 -13 66 -21 99 -8 32 -17 71 -19 85
-14 103 -18 127 -23 136 -3 5 -7 28 -8 50 -1 22 -5 108 -9 190 -4 83 -12 161
-18 175 -16 39 -18 379 -2 410 7 14 15 70 19 125 12 199 14 223 19 232 3 5 11
41 17 79 6 38 18 98 26 134 9 36 18 75 20 87 2 12 9 34 14 48 5 14 7 25 4 25
-4 0 -2 6 4 13 5 6 13 28 17 47 3 19 13 56 21 81 8 25 16 54 19 65 8 34 71
196 125 319 29 66 53 125 55 130 6 25 51 115 83 165 19 30 46 75 60 100 14 25
46 77 71 115 25 39 48 75 51 80 14 30 110 167 152 218 26 32 48 61 48 65 0 8
36 51 94 112 24 25 51 60 61 79 24 47 213 239 276 280 28 18 91 72 141 119 49
48 115 104 146 125 31 22 68 47 82 58 14 10 61 42 105 71 44 28 99 64 121 79
45 31 371 198 469 241 197 86 472 183 575 202 14 2 48 10 75 16 28 7 64 14 80
17 17 2 48 9 70 15 46 12 59 14 111 22 37 6 112 20 164 32 14 3 113 7 220 10
216 4 253 8 269 28 6 7 12 46 14 86 l2 74 -138 0 c-76 1 -139 0 -140 0z"/>
<path d="M6776 9158 c-31 -48 7 -93 88 -104 43 -6 44 -6 51 25 8 37 -5 56 -50
75 -66 28 -73 28 -89 4z"/>
<path d="M7116 8983 c-15 -14 -25 -33 -24 -41 2 -8 32 -30 67 -47 52 -26 68
-31 83 -22 20 13 39 60 29 74 -6 9 -109 63 -122 63 -3 0 -18 -12 -33 -27z"/>
<path d="M2860 8939 c-30 -18 -58 -36 -61 -41 -11 -18 6 -81 23 -84 26 -3 135
53 140 73 2 10 1 32 -2 48 -7 41 -33 42 -100 4z"/>
<path d="M5415 8883 c-69 -70 -63 -111 20 -148 58 -25 88 -31 196 -40 36 -3
74 -7 85 -10 142 -34 337 -87 532 -146 74 -22 155 -43 182 -46 l48 -6 -3 78
c-2 49 -8 82 -16 89 -40 36 -202 89 -459 150 -30 7 -73 18 -95 24 -117 32
-230 52 -312 57 -50 3 -103 9 -118 15 -34 13 -28 14 -60 -17z"/>
<path d="M7433 8782 c-13 -14 -23 -31 -23 -38 0 -14 46 -44 103 -68 38 -15 39
-15 62 10 36 39 28 60 -32 89 -71 35 -85 36 -110 7z"/>
<path d="M2515 8699 c-47 -42 -48 -76 -1 -84 42 -8 63 -2 97 27 34 30 39 48
20 70 -25 29 -75 23 -116 -13z"/>
<path d="M7761 8591 c-6 -11 -18 -27 -27 -36 -39 -39 26 -105 99 -100 21 2 41
5 44 8 17 17 -31 90 -89 135 -14 11 -18 10 -27 -7z"/>
<path d="M4792 8549 c-24 -4 -64 -11 -90 -14 -114 -13 -144 -18 -262 -40 -69
-13 -154 -31 -190 -40 -36 -9 -72 -17 -80 -19 -77 -18 -180 -56 -360 -132
-141 -60 -455 -221 -525 -270 -102 -71 -275 -202 -315 -239 -19 -18 -69 -57
-110 -88 -156 -117 -373 -368 -542 -627 -84 -129 -203 -330 -228 -386 -50
-112 -156 -382 -165 -424 -2 -8 -13 -41 -24 -72 -11 -32 -18 -58 -16 -58 2 0
-5 -30 -16 -67 -11 -38 -23 -81 -25 -98 -3 -16 -12 -52 -20 -80 -8 -27 -17
-79 -20 -115 -3 -36 -12 -94 -21 -130 -26 -101 -26 -692 -1 -806 9 -45 20
-108 23 -140 6 -72 9 -87 41 -216 48 -195 53 -216 68 -249 9 -19 38 -98 65
-177 56 -157 147 -352 224 -475 27 -44 60 -99 73 -123 30 -54 109 -166 200
-286 83 -107 497 -522 533 -533 14 -4 42 -23 62 -42 21 -20 62 -51 91 -71 29
-19 89 -60 133 -89 44 -30 187 -107 317 -173 191 -95 273 -130 422 -179 211
-69 360 -107 461 -116 98 -9 116 -12 150 -23 17 -5 64 -10 105 -12 152 -5 296
-6 333 -2 l38 5 -6 61 c-3 34 -11 73 -17 89 -9 24 -15 27 -62 28 -264 3 -379
9 -391 19 -7 6 -33 13 -57 15 -23 2 -70 7 -102 10 -33 3 -73 12 -90 19 -17 7
-65 23 -106 34 -158 44 -266 76 -280 84 -31 17 -186 85 -210 93 -74 22 -236
112 -410 228 -180 121 -212 144 -258 188 -9 9 -51 40 -92 71 -107 78 -296 273
-402 413 -50 66 -95 130 -101 143 -6 12 -14 22 -19 22 -4 0 -8 4 -8 10 0 5
-27 48 -60 95 -33 47 -60 90 -60 95 0 6 -4 10 -10 10 -5 0 -10 5 -10 12 0 6
-6 19 -14 27 -17 19 -69 122 -89 177 -8 21 -35 85 -61 141 -49 111 -75 178
-110 293 -73 239 -87 298 -101 440 -4 36 -8 74 -11 85 -2 11 -10 46 -17 78 -9
42 -12 141 -10 345 1 158 4 294 6 302 1 8 8 31 14 50 6 19 14 63 17 97 3 34
13 90 22 125 9 35 18 74 21 88 2 14 11 48 19 75 8 28 17 65 20 83 10 58 133
389 157 420 5 6 7 12 3 12 -7 0 135 279 162 317 24 33 102 163 102 169 0 2 8
12 18 22 18 19 36 42 102 132 22 30 133 149 248 263 147 149 245 237 339 308
72 54 136 99 142 99 5 0 11 3 13 8 3 8 64 52 72 52 2 0 42 23 88 52 99 61 151
89 198 108 19 7 54 22 77 32 48 21 96 41 103 43 3 1 23 9 45 19 214 95 535
178 740 191 50 3 117 8 151 10 33 2 74 9 90 16 39 15 312 17 339 2 24 -13 85
-21 230 -28 55 -3 118 -11 140 -16 22 -6 65 -15 95 -20 57 -9 75 -12 100 -21
8 -3 114 -38 235 -77 292 -96 472 -184 745 -366 161 -107 227 -158 306 -236
56 -54 108 -99 117 -99 21 0 127 -104 127 -124 0 -9 37 -55 83 -102 45 -48 98
-109 118 -138 20 -28 61 -85 92 -126 32 -41 57 -80 57 -87 0 -6 4 -13 8 -15
18 -7 192 -341 254 -488 58 -136 127 -349 168 -515 18 -76 20 -86 26 -138 2
-26 9 -71 15 -100 21 -107 23 -149 23 -447 0 -246 -4 -318 -17 -375 -9 -38
-19 -92 -21 -120 -3 -27 -8 -61 -12 -75 -3 -14 -7 -34 -9 -45 -6 -38 -76 -305
-90 -345 -8 -22 -15 -44 -16 -48 -3 -14 -12 -38 -34 -87 -12 -27 -32 -77 -45
-110 -29 -73 -107 -226 -183 -358 -31 -54 -57 -103 -57 -108 0 -5 -4 -9 -10
-9 -5 0 -10 -4 -10 -10 0 -5 -6 -18 -14 -27 -8 -10 -56 -74 -106 -142 -109
-147 -134 -176 -222 -260 -38 -36 -68 -69 -68 -75 0 -6 12 -21 28 -34 15 -13
47 -42 71 -65 l44 -41 30 35 c16 19 66 74 111 123 44 49 92 106 106 126 14 21
47 63 74 94 80 91 203 278 204 310 0 5 4 12 9 15 13 8 69 111 78 141 4 14 33
79 65 145 81 170 109 249 204 587 31 111 45 197 50 304 0 17 8 39 16 49 12 15
15 76 14 399 0 260 -4 403 -13 451 -6 39 -14 81 -16 95 -2 14 -6 45 -10 70 -4
25 -14 72 -22 105 -8 33 -16 67 -18 75 -3 16 -14 57 -39 150 -8 30 -29 93 -46
140 -18 47 -38 103 -46 125 -34 101 -49 138 -109 260 -35 72 -86 167 -114 213
-28 46 -51 86 -51 89 0 9 -52 90 -128 196 -40 56 -90 127 -111 157 -21 30
-108 125 -194 210 -188 188 -222 220 -273 253 -21 13 -52 37 -69 51 -43 39
-297 209 -360 241 -33 17 -46 25 -115 70 -25 17 -68 40 -95 52 -235 104 -326
141 -430 175 -104 34 -265 77 -345 91 -14 3 -52 10 -85 16 -33 6 -70 13 -83
16 -13 2 -51 7 -85 10 -109 11 -135 15 -160 24 -31 12 -527 12 -585 0z"/>
<path d="M2270 8503 c-55 -33 -70 -47 -75 -72 -5 -28 16 -51 56 -60 32 -7 40
-5 72 24 21 18 37 38 37 44 0 11 -38 91 -43 91 -1 0 -22 -12 -47 -27z"/>
<path d="M8013 8320 c-31 -13 -20 -42 36 -96 60 -59 72 -65 95 -48 40 29 10
124 -45 143 -37 13 -56 13 -86 1z"/>
<path d="M1972 8234 c-28 -19 -52 -65 -52 -98 0 -32 32 -51 60 -36 28 15 84
70 98 97 10 19 9 24 -10 37 -29 20 -67 20 -96 0z"/>
<path d="M4900 8199 c-41 -4 -99 -12 -128 -18 -30 -6 -81 -13 -115 -16 -74 -7
-96 -13 -115 -32 -17 -17 -23 -78 -11 -110 16 -42 42 -47 260 -46 183 1 212 4
250 21 54 24 162 24 200 -1 54 -36 98 -26 157 35 46 49 48 72 7 106 -63 52
-124 66 -285 66 -80 1 -179 -2 -220 -5z"/>
<path d="M7195 8202 c-28 -6 -35 -20 -35 -74 0 -54 6 -62 150 -204 50 -49 108
-97 128 -108 52 -26 219 -193 243 -242 20 -42 217 -244 237 -244 6 0 28 14 47
32 33 28 36 36 34 77 -1 25 -7 55 -12 66 -5 11 -53 64 -106 118 -53 54 -108
118 -123 144 -35 60 -143 169 -193 195 -22 11 -86 66 -143 122 -56 55 -113
105 -125 110 -26 10 -74 14 -102 8z"/>
<path d="M5958 8023 c-26 -29 -46 -92 -40 -130 3 -22 45 -44 146 -78 27 -9
165 -74 307 -145 142 -71 267 -131 278 -135 14 -4 25 3 42 27 19 25 23 44 22
95 0 36 -4 68 -9 73 -11 10 -405 208 -489 245 -67 30 -199 75 -218 75 -7 0
-25 -12 -39 -27z"/>
<path d="M8290 8035 c-7 -8 -12 -26 -12 -39 0 -34 39 -95 65 -100 37 -8 57 -3
59 13 0 9 2 23 3 31 4 37 -53 110 -86 110 -9 0 -22 -7 -29 -15z"/>
<path d="M1715 7940 c-16 -17 -30 -36 -31 -44 -1 -7 -5 -22 -8 -33 -7 -22 14
-45 44 -50 18 -3 120 88 120 106 0 11 -66 51 -84 51 -7 0 -25 -14 -41 -30z"/>
<path d="M3920 7963 c-33 -12 -290 -143 -331 -168 -24 -15 -98 -63 -164 -107
-100 -67 -125 -89 -148 -129 -15 -27 -27 -53 -27 -57 0 -5 23 -28 50 -51 l50
-42 62 33 c35 18 69 39 77 47 42 39 208 136 386 226 184 92 200 102 203 129
10 83 -77 149 -158 119z"/>
<path d="M8518 7747 c-15 -14 -25 -31 -24 -38 6 -30 20 -55 44 -81 20 -22 29
-25 48 -18 13 5 24 6 24 2 1 -4 9 3 19 15 16 19 17 29 9 56 -24 78 -76 105
-120 64z"/>
<path d="M1512 7649 c-27 -10 -74 -74 -70 -96 3 -19 62 -63 84 -63 16 0 78
125 71 143 -6 17 -57 26 -85 16z"/>
<path d="M8728 7434 c-39 -20 -42 -42 -12 -77 36 -42 54 -54 91 -60 27 -4 32
-2 35 16 4 26 -18 94 -35 111 -20 20 -52 24 -79 10z"/>
<path d="M1304 7323 c-21 -21 -56 -103 -51 -118 5 -11 58 -25 98 -25 18 0 44
47 53 92 8 45 -67 84 -100 51z"/>
<path d="M7104 7277 c-28 -16 -28 -101 1 -141 11 -16 36 -53 55 -82 19 -29 55
-74 80 -100 25 -26 101 -131 170 -233 118 -176 127 -186 155 -184 58 4 67 8
95 40 40 45 36 63 -50 218 -75 134 -168 260 -280 378 -47 49 -94 94 -104 99
-28 15 -99 18 -122 5z"/>
<path d="M4086 7234 c-3 -9 -6 -35 -6 -59 0 -29 -5 -45 -15 -49 -8 -3 -15 -10
-15 -15 0 -5 7 -16 15 -25 8 -8 15 -18 15 -23 0 -5 9 -25 19 -45 16 -29 20
-60 23 -162 l3 -126 -35 -1 c-19 0 -125 0 -236 -1 -135 0 -212 -4 -238 -13
-65 -23 -111 -60 -140 -116 -27 -51 -29 -62 -32 -194 -2 -77 -4 -198 -4 -270
l0 -130 -252 2 c-182 1 -255 -2 -260 -10 -10 -16 -10 -97 0 -98 4 -1 119 -3
255 -4 137 -2 250 -5 253 -7 5 -6 6 -709 0 -715 -2 -2 -117 -4 -255 -5 -283 0
-259 8 -260 -90 -1 -46 2 -58 17 -61 9 -3 124 -5 254 -4 131 0 240 -2 243 -5
7 -7 9 -708 2 -714 -3 -3 -63 -5 -133 -5 l-128 1 -38 40 c-36 37 -42 40 -94
40 -50 0 -59 -3 -90 -34 l-33 -33 2 -103 c2 -100 2 -102 32 -126 24 -19 42
-24 87 -24 54 0 60 3 97 40 38 38 42 40 108 41 84 2 186 -1 190 -5 2 -1 4
-121 5 -265 2 -249 3 -264 22 -289 28 -36 96 -102 115 -111 9 -4 132 -9 275
-9 142 -1 261 -4 264 -7 3 -3 5 -62 5 -130 -1 -110 -4 -128 -22 -151 -12 -15
-21 -34 -21 -44 0 -9 -9 -25 -20 -35 -22 -20 -26 -50 -9 -60 5 -4 21 -31 34
-61 26 -59 48 -73 115 -76 42 -1 66 11 120 63 30 29 34 40 36 89 2 63 -5 81
-48 119 l-31 27 0 128 c0 70 3 129 6 133 8 8 705 8 713 0 4 -3 7 -113 7 -243
0 -256 3 -284 22 -284 7 0 15 -4 17 -9 8 -23 53 -20 83 4 l29 24 2 252 c1 155
6 254 12 258 13 8 700 6 708 -2 3 -3 6 -130 7 -282 l0 -277 49 4 c27 3 62 14
76 25 l27 20 1 252 c1 138 4 254 7 258 3 3 122 7 264 8 142 1 263 3 269 4 13
1 122 109 133 131 4 8 8 131 9 273 0 142 3 261 6 264 3 3 118 6 256 6 245 0
251 1 255 21 4 17 1 103 -4 128 0 4 -114 7 -252 7 -138 0 -254 2 -257 5 -7 8
-7 704 1 712 3 4 120 7 259 8 l253 1 2 55 c3 108 29 98 -258 98 -138 0 -253 3
-256 6 -7 7 -7 705 0 712 3 3 63 5 133 5 l129 -1 36 -39 c33 -35 41 -38 92
-38 37 -1 65 5 86 18 34 20 32 14 35 164 l1 90 -95 2 c-126 4 -140 0 -140 -37
0 -16 -4 -31 -9 -34 -10 -7 -261 -10 -267 -4 -2 2 -5 123 -7 268 l-5 265 -28
54 c-31 58 -89 104 -154 121 -19 5 -136 9 -258 9 -123 0 -226 2 -228 4 -3 3
-6 109 -8 237 -2 227 -3 233 -25 251 -22 18 -102 36 -118 26 -5 -3 -9 -121 -8
-261 l0 -256 -50 0 c-290 -3 -668 0 -673 5 -4 3 -7 115 -8 248 -1 133 -2 248
-3 255 -1 10 -20 12 -73 10 l-73 -3 -3 -255 c-2 -140 -5 -256 -7 -258 -5 -6
-707 -4 -712 2 -5 5 -7 160 -4 254 1 18 7 22 35 22 42 0 46 10 41 109 -6 123
-16 131 -175 131 -71 0 -89 -3 -94 -16z m2327 -628 c26 -4 47 -11 47 -16 0 -5
8 -11 18 -14 31 -10 76 -58 101 -108 l24 -48 -1 -1352 0 -1353 -27 -48 c-15
-27 -35 -51 -44 -54 -9 -4 -29 -15 -45 -26 -28 -20 -44 -20 -1402 -20 l-1372
0 -54 30 c-42 24 -58 41 -77 79 l-24 49 0 1275 c0 701 2 1307 3 1345 5 120 42
190 123 233 51 26 57 27 267 32 324 8 2408 4 2463 -4z"/>
<path d="M4790 6281 c-41 -13 -104 -48 -122 -67 -22 -24 -81 -172 -73 -184 11
-18 -21 -23 -134 -24 l-116 -1 -47 -35 c-26 -19 -62 -44 -80 -55 -25 -15 -45
-44 -81 -119 -44 -91 -49 -107 -53 -190 -6 -110 -8 -116 -33 -116 -32 0 -70
-41 -100 -107 -25 -56 -27 -74 -27 -168 l1 -104 38 -39 38 -39 -30 -34 c-17
-18 -43 -58 -58 -88 -25 -53 -27 -64 -27 -201 -1 -137 0 -148 25 -200 31 -63
88 -122 139 -144 55 -23 74 -49 71 -102 -4 -94 105 -251 206 -296 23 -10 44
-22 47 -27 3 -4 40 -9 82 -9 64 -1 81 3 106 21 28 20 30 21 39 4 6 -9 22 -28
36 -41 25 -24 31 -24 177 -24 160 1 180 6 218 54 29 36 57 37 91 3 59 -59 64
-61 214 -58 76 1 149 6 162 11 13 5 37 23 53 41 28 31 29 31 43 12 12 -15 29
-20 91 -22 68 -2 80 1 134 30 127 69 216 190 219 297 1 61 17 85 71 107 51 21
107 80 139 143 26 53 27 61 26 210 0 146 -2 158 -23 184 -12 16 -22 35 -22 42
0 7 -17 29 -37 49 l-38 37 32 28 c47 42 51 55 49 171 -1 96 -4 112 -31 168
-26 53 -37 65 -77 84 -27 12 -48 26 -48 32 -1 5 -2 49 -4 96 -2 81 -6 93 -52
185 -37 74 -57 104 -82 119 -18 11 -54 36 -80 55 l-47 35 -116 1 c-64 0 -121
4 -127 8 -7 4 -12 24 -12 45 0 68 -12 102 -49 138 -59 57 -125 86 -213 91 -98
6 -114 1 -167 -48 -24 -22 -47 -40 -52 -40 -4 0 -20 12 -35 28 -54 54 -74 62
-154 61 -41 0 -86 -4 -100 -8z m577 -152 c21 -7 33 -19 38 -37 3 -14 15 -38
25 -52 17 -23 17 -29 5 -51 -23 -39 -45 -88 -45 -99 0 -5 -4 -10 -10 -10 -20
0 -9 -27 20 -48 40 -30 59 -28 153 17 73 35 114 45 169 42 9 -1 34 -16 56 -34
22 -19 53 -39 68 -46 21 -8 36 -27 52 -65 21 -48 24 -72 26 -206 2 -131 4
-153 19 -161 9 -6 23 -9 29 -7 31 6 69 -16 111 -62 25 -28 44 -56 43 -63 -1
-7 -12 -26 -24 -41 -12 -16 -22 -35 -22 -42 0 -7 -15 -22 -34 -31 -38 -20
-116 -88 -116 -102 0 -17 75 -83 117 -102 56 -27 74 -50 79 -99 2 -23 13 -53
23 -66 39 -49 -7 -158 -106 -256 -53 -51 -63 -57 -108 -60 l-50 -3 0 -128 -1
-127 -52 -53 -52 -52 -81 2 c-67 1 -85 5 -103 22 -12 12 -28 21 -35 21 -8 0
-44 -29 -82 -64 -67 -63 -69 -64 -117 -61 -59 4 -158 56 -168 88 -4 12 -14 31
-23 43 -14 18 -16 76 -14 540 0 285 2 531 2 546 1 35 25 39 76 14 95 -46 191
-15 303 96 l60 59 -2 82 c-1 74 -3 82 -24 93 -47 23 -68 8 -111 -81 -51 -105
-76 -126 -142 -120 -28 3 -58 10 -68 17 -41 30 -79 66 -88 84 -10 20 -9 568 1
608 4 16 26 34 73 59 59 30 70 33 84 21 8 -8 29 -19 46 -25z m-451 7 c96 -46
87 33 88 -796 l1 -730 -30 -1 c-16 -1 -71 -1 -122 0 -84 2 -97 -1 -151 -28
-32 -16 -64 -36 -70 -44 -30 -36 -64 -116 -69 -164 -5 -52 -4 -54 35 -94 23
-22 46 -38 52 -34 7 4 29 44 50 89 56 120 119 172 186 155 35 -10 113 -89 115
-116 1 -10 1 -64 1 -119 0 -81 -4 -107 -18 -129 -10 -16 -19 -34 -20 -42 -3
-18 3 -13 -63 -47 -30 -15 -75 -30 -101 -33 -47 -5 -48 -4 -116 61 -38 36 -75
66 -82 66 -7 0 -26 -9 -41 -21 -22 -16 -46 -22 -102 -23 l-74 -2 -55 55 -55
56 1 110 c0 145 1 143 -49 140 -40 -2 -45 1 -119 77 -43 43 -81 91 -84 106 -4
15 -11 32 -15 38 -17 22 -16 60 4 99 11 22 22 56 24 75 6 44 27 68 78 90 49
22 125 95 125 121 0 13 -22 29 -74 55 -63 31 -78 44 -97 80 l-22 43 28 55 c38
75 55 89 110 88 29 -1 45 3 46 11 1 7 3 79 5 161 3 125 7 158 25 201 21 51 24
54 118 98 53 25 105 48 116 50 11 2 55 -14 98 -36 82 -42 130 -54 150 -37 7 6
21 17 31 24 19 13 18 16 -19 90 l-38 77 26 53 c19 38 37 60 64 74 49 26 50 26
109 -2z"/>
<path d="M5317 4821 c-58 -48 -65 -56 -72 -83 -6 -23 -1 -33 26 -58 40 -36 42
-36 87 -8 25 15 51 21 90 21 51 0 58 -3 89 -37 30 -32 33 -42 28 -73 -3 -21
-12 -44 -20 -53 -8 -9 -18 -35 -21 -58 -6 -46 10 -62 64 -62 31 0 92 51 92 76
0 7 8 28 19 46 11 20 19 55 20 87 1 30 6 60 12 67 13 16 76 7 115 -17 38 -23
60 -24 68 -3 11 30 6 110 -9 130 -8 10 -15 16 -15 12 0 -4 -19 3 -42 15 -55
30 -177 37 -198 12 -29 -35 -48 -37 -88 -10 -35 23 -48 25 -126 24 -78 -1 -91
-4 -119 -28z"/>
<path d="M4577 5639 c-22 -13 -17 -74 9 -114 10 -16 18 -49 19 -78 2 -46 -2
-55 -34 -89 l-36 -38 -80 41 c-111 57 -122 58 -131 13 -3 -19 -13 -38 -20 -41
-23 -9 -16 -30 22 -68 45 -45 63 -52 143 -54 35 -1 76 -8 90 -16 14 -8 38 -19
54 -25 15 -5 27 -17 28 -27 4 -87 22 -114 90 -133 81 -24 90 77 20 215 -43 85
-46 113 -12 149 30 31 24 154 -10 216 -13 25 -28 48 -34 52 -15 11 -97 9 -118
-3z"/>
<path d="M2795 7122 c-15 -11 -125 -157 -183 -244 -47 -70 -164 -290 -192
-363 -37 -94 -19 -156 49 -170 9 -2 27 -6 41 -10 20 -5 31 0 47 19 19 22 45
63 48 76 1 3 7 18 14 34 6 16 13 36 15 45 6 29 24 66 43 86 10 11 28 36 39 55
10 19 30 51 44 70 14 19 32 47 39 61 7 15 23 37 34 50 12 13 35 44 51 69 16
25 38 55 49 67 15 17 21 39 23 88 2 36 0 65 -4 66 -49 6 -149 7 -157 1z"/>
<path d="M8893 7119 c-19 -7 -20 -11 -12 -49 15 -66 56 -140 78 -140 36 0 50
26 44 78 -11 94 -50 134 -110 111z"/>
<path d="M1172 7002 c-13 -4 -61 -90 -74 -130 -7 -23 -5 -23 45 -18 36 3 57
11 68 25 17 21 35 108 24 119 -7 8 -45 10 -63 4z"/>
<path d="M9051 6760 c-15 -8 -17 -60 -5 -113 6 -30 32 -41 80 -33 16 2 32 5
36 5 16 2 -16 121 -33 121 -6 0 -7 5 -4 10 3 6 0 10 -7 11 -7 0 -22 2 -33 4
-11 2 -27 0 -34 -5z"/>
<path d="M8336 6683 c-34 -9 -16 -123 48 -318 60 -179 100 -324 110 -390 4
-22 9 -48 12 -57 7 -24 13 -57 19 -108 9 -76 27 -143 48 -185 24 -48 35 -57
59 -44 10 5 18 7 18 4 0 -7 82 46 91 59 4 5 2 23 -3 40 -5 17 -11 45 -13 61
-9 83 -21 155 -36 223 -5 23 -12 59 -15 80 -3 20 -14 64 -25 96 -10 33 -19 66
-19 75 0 16 -82 281 -105 341 -8 19 -19 52 -25 72 -6 21 -16 41 -22 45 -14 8
-115 12 -142 6z"/>
<path d="M1040 6652 c-15 -5 -45 -32 -37 -32 3 0 -5 -19 -17 -42 -35 -69 -30
-83 31 -84 60 -2 64 3 65 87 0 54 -16 81 -42 71z"/>
<path d="M9174 6403 c-37 -7 -45 -43 -22 -96 22 -50 41 -61 94 -54 36 5 37 17
7 87 -22 49 -39 72 -53 68 -3 0 -15 -3 -26 -5z"/>
<path d="M895 6273 c-8 -23 -19 -104 -16 -129 1 -11 66 -5 88 9 12 8 40 85 37
105 -1 6 -2 16 -3 20 0 5 -23 10 -50 11 -38 1 -50 -2 -56 -16z"/>
<path d="M7742 6203 c-22 -4 -22 -7 -17 -91 3 -48 14 -125 26 -172 45 -184 50
-207 55 -250 3 -25 10 -63 16 -85 13 -46 13 -46 23 -140 11 -105 36 -141 90
-130 11 2 27 4 36 4 9 1 27 10 40 22 21 18 24 29 25 103 1 92 -18 265 -32 287
-2 3 -6 21 -9 40 -3 19 -14 72 -26 119 -18 76 -29 115 -69 253 -7 23 -18 37
-28 38 -88 5 -110 6 -130 2z"/>
<path d="M9241 5988 c-2 -59 16 -111 42 -121 8 -3 29 3 46 14 36 22 35 40 -6
122 -20 41 -27 47 -52 45 -27 -2 -28 -4 -30 -60z"/>
<path d="M867 5923 c-35 -6 -55 -36 -61 -94 -6 -60 4 -73 54 -72 49 1 50 2 56
44 11 69 4 131 -14 128 -4 -1 -19 -4 -35 -6z"/>
<path d="M2230 5878 c-19 -5 -40 -15 -47 -21 -7 -7 -15 -50 -18 -97 -7 -100
-11 -129 -26 -167 -6 -16 -12 -142 -14 -305 l-4 -278 52 -1 c29 -1 56 -1 61 0
4 1 23 2 42 3 26 1 35 6 39 22 2 12 3 115 2 230 -2 195 -1 211 17 228 17 16
19 34 20 208 l2 190 -46 -1 c-25 0 -61 -5 -80 -11z"/>
<path d="M9319 5671 c-28 -27 -39 -58 -39 -105 0 -67 5 -75 45 -66 36 8 61 28
67 51 4 20 -34 127 -46 132 -6 2 -18 -3 -27 -12z"/>
<path d="M793 5532 c-27 -4 -25 1 -28 -88 l-3 -72 52 3 c28 1 55 3 59 4 12 2
4 141 -8 142 -6 1 -19 4 -30 8 -11 4 -30 5 -42 3z"/>
<path d="M9299 5280 c-22 -13 -25 -114 -4 -146 17 -26 59 -32 85 -11 14 11 18
63 11 147 -1 18 -66 24 -92 10z"/>
<path d="M773 5162 c-7 -4 -12 -31 -12 -62 0 -85 2 -88 62 -86 l52 2 1 53 c2
92 -2 101 -50 101 -22 0 -46 -4 -53 -8z"/>
<path d="M9300 4922 c-8 -4 -16 -13 -18 -21 -6 -26 -3 -151 3 -161 3 -6 19 -9
36 -8 23 2 31 9 41 38 6 19 13 61 14 93 3 50 1 57 -16 57 -10 0 -24 2 -32 4
-7 3 -20 2 -28 -2z"/>
<path d="M817 4802 c-17 -3 -18 -12 -13 -95 3 -51 5 -92 5 -93 1 -1 100 4 113
5 8 1 1 62 -15 126 -10 43 -16 50 -42 55 -16 3 -38 4 -48 2z"/>
<path d="M2328 4506 c-32 -11 -66 -28 -77 -37 -19 -17 -18 -18 4 -105 40 -153
94 -290 192 -485 l94 -190 77 6 c42 4 82 7 89 7 38 4 16 82 -79 278 -42 85
-95 207 -118 270 -23 63 -46 124 -50 135 -5 11 -20 45 -34 76 -13 31 -28 59
-32 62 -5 3 -35 -5 -66 -17z"/>
<path d="M9249 4513 c-30 -18 -45 -54 -45 -103 1 -35 1 -35 48 -36 69 -2 74 9
65 141 -1 17 -39 16 -68 -2z"/>
<path d="M844 4383 c5 -40 42 -119 58 -125 7 -2 28 -2 47 2 43 6 46 25 20 94
l-20 53 -55 2 c-54 2 -54 2 -50 -26z"/>
<path d="M9169 4155 c-18 -10 -30 -28 -39 -58 -18 -66 -12 -81 35 -85 66 -5
81 21 76 133 -1 25 -35 30 -72 10z"/>
<path d="M974 4043 c-18 -3 -20 -10 -17 -46 2 -23 6 -57 9 -75 l5 -34 52 6
c29 3 55 5 58 6 7 0 -6 68 -19 100 -3 8 -6 18 -6 22 -2 17 -43 27 -82 21z"/>
<path d="M9051 3797 c-28 -14 -48 -59 -47 -107 1 -33 3 -34 41 -38 66 -5 79
13 76 108 -1 40 -4 46 -23 47 -13 2 -34 -3 -47 -10z"/>
<path d="M1093 3679 c-13 -5 -23 -10 -23 -12 0 -11 34 -104 42 -113 12 -16 51
-22 78 -12 19 7 21 13 15 41 -3 17 -9 46 -12 62 -3 17 -7 32 -10 35 -8 8 -67
8 -90 -1z"/>
<path d="M8119 3503 c-35 -39 -71 -90 -104 -148 -29 -51 -156 -227 -184 -256
-53 -54 -103 -112 -148 -171 -28 -38 -83 -103 -123 -145 -81 -86 -91 -106 -78
-145 11 -32 87 -73 121 -64 30 7 287 266 310 313 11 21 27 45 37 55 30 28 90
105 90 114 0 5 17 29 38 53 78 91 202 281 202 309 0 22 -103 112 -128 112 -4
0 -19 -12 -33 -27z"/>
<path d="M8899 3444 c-17 -5 -47 -52 -59 -94 -10 -34 3 -48 53 -59 39 -9 48
-1 82 72 35 74 33 83 -17 84 -24 1 -50 -1 -59 -3z"/>
<path d="M1254 3363 c-21 -14 -23 -76 -5 -123 27 -67 44 -72 88 -28 l36 37
-29 58 c-23 45 -35 59 -54 61 -14 1 -30 -1 -36 -5z"/>
<path d="M8722 3107 c-47 -52 -58 -120 -21 -130 55 -14 102 39 100 112 -1 30
-4 33 -35 36 -15 2 -32 -5 -44 -18z"/>
<path d="M1431 3016 c-23 -24 -31 -40 -27 -53 6 -19 81 -103 92 -103 15 0 64
43 64 56 0 27 -64 134 -81 134 -8 0 -30 -15 -48 -34z"/>
<path d="M2338 2919 c-14 -8 -18 -23 -18 -66 l0 -56 192 -194 c106 -107 215
-208 243 -225 27 -17 68 -48 90 -68 45 -41 252 -177 275 -180 33 -5 51 1 83
30 37 32 48 64 36 97 -4 11 -61 55 -126 99 -65 43 -127 88 -139 99 -43 41 -84
75 -136 111 -29 20 -121 104 -204 186 -82 81 -159 154 -170 161 -23 16 -102
19 -126 6z"/>
<path d="M8504 2793 c-30 -28 -56 -81 -49 -103 8 -25 67 -45 93 -31 32 17 54
59 50 99 -4 52 -55 70 -94 35z"/>
<path d="M1644 2705 c-21 -32 -13 -64 26 -105 25 -26 34 -31 59 -25 36 8 45
36 25 84 -24 61 -84 86 -110 46z"/>
<path d="M8261 2485 c-56 -52 -69 -79 -50 -101 15 -18 91 -13 116 8 44 36 48
130 5 136 -14 2 -37 -12 -71 -43z"/>
<path d="M1908 2452 c-17 -3 -33 -44 -29 -77 2 -11 17 -35 34 -52 33 -36 74
-43 113 -20 28 16 19 41 -35 93 -56 55 -64 60 -83 56z"/>
<path d="M8009 2234 c-54 -34 -65 -121 -18 -138 48 -16 76 -1 104 58 30 64 31
72 6 86 -28 14 -62 12 -92 -6z"/>
<path d="M6653 2131 c-230 -114 -231 -115 -523 -211 -269 -88 -309 -104 -323
-124 -10 -15 2 -84 20 -120 17 -32 18 -32 158 5 256 68 483 151 688 252 l208
102 -5 52 c-8 71 -32 122 -58 123 -3 0 -77 -35 -165 -79z"/>
<path d="M2170 2153 c-52 -35 -51 -42 7 -98 52 -50 76 -56 98 -22 25 38 -2
103 -53 126 -28 13 -23 14 -52 -6z"/>
<path d="M7728 1971 c-54 -34 -60 -47 -42 -89 12 -30 16 -32 55 -30 30 2 50
11 75 35 l34 31 -22 41 c-12 23 -29 41 -38 41 -9 0 -37 -13 -62 -29z"/>
<path d="M2453 1918 c-16 -23 -15 -67 3 -97 31 -53 112 -68 140 -26 12 18 11
24 -10 48 -32 37 -96 87 -111 87 -7 0 -17 -6 -22 -12z"/>
<path d="M3973 1918 c-25 -12 -46 -57 -49 -107 -4 -55 3 -68 45 -84 41 -17
363 -95 421 -103 73 -10 164 -25 170 -29 24 -15 356 -27 448 -17 l34 4 -5 62
c-7 84 -21 116 -49 117 -250 7 -340 13 -356 23 -7 4 -32 8 -134 22 -65 8 -101
14 -108 19 -4 2 -37 9 -75 15 -38 6 -96 20 -129 30 -195 63 -186 61 -213 48z"/>
<path d="M7455 1772 c-11 -4 -37 -18 -57 -32 -40 -27 -49 -58 -23 -80 8 -7 15
-19 15 -26 0 -8 5 -14 11 -14 16 0 113 50 120 62 12 18 -22 100 -40 97 -3 -1
-15 -4 -26 -7z"/>
<path d="M2737 1675 c-28 -28 -18 -54 35 -88 60 -38 122 -5 110 58 -5 27 -16
33 -81 41 -37 4 -52 2 -64 -11z"/>
<path d="M7105 1539 c-33 -17 -63 -34 -67 -38 -4 -4 4 -24 18 -44 28 -42 34
-42 107 -6 34 18 42 29 37 54 -1 5 -2 21 -3 35 -3 35 -24 35 -92 -1z"/>
<path d="M3086 1515 c-33 -34 -39 -56 -19 -74 82 -75 107 -81 149 -32 25 29
23 35 -35 80 -49 38 -75 45 -95 26z"/>
<path d="M6840 1403 c-8 -3 -48 -21 -87 -40 l-73 -34 15 -29 c24 -46 42 -51
100 -28 76 29 95 45 91 71 -3 12 -5 32 -5 45 -1 22 -11 26 -41 15z"/>
<path d="M3416 1323 c-13 -21 -22 -41 -19 -45 5 -10 100 -53 134 -61 24 -6 27
-3 30 21 8 56 0 69 -57 96 -30 14 -57 26 -59 26 -3 0 -15 -17 -29 -37z"/>
<path d="M6395 1240 c-27 -5 -31 -10 -36 -47 -8 -61 -1 -67 57 -47 60 20 104
42 104 52 0 4 -3 17 -6 30 -6 20 -12 22 -48 20 -23 -2 -55 -5 -71 -8z"/>
<path d="M3777 1209 c-12 -7 -15 -28 -8 -60 2 -9 90 -45 126 -52 l31 -6 -3 47
c-2 25 -6 49 -10 53 -14 12 -121 26 -136 18z"/>
<path d="M6044 1131 c-42 -13 -44 -16 -42 -49 l2 -34 68 5 c82 7 90 11 84 47
-8 55 -24 59 -112 31z"/>
<path d="M4127 1113 c-24 -88 -19 -95 77 -99 l76 -3 0 49 c0 27 -4 51 -8 54
-5 3 -38 8 -75 11 -57 5 -66 4 -70 -12z"/>
<path d="M5690 1078 c-65 -10 -81 -23 -85 -72 -3 -33 2 -40 25 -38 3 0 41 3
85 7 44 3 82 8 84 11 6 6 4 85 -3 91 -8 9 -51 9 -106 1z"/>
<path d="M4492 1041 c-14 -10 -20 -35 -11 -52 6 -12 28 -16 98 -18 78 -2 91 0
99 16 5 10 6 27 2 38 -6 18 -17 20 -93 21 -47 0 -90 -2 -95 -5z"/>
<path d="M4908 1042 c-26 -3 -28 -6 -28 -52 0 -29 5 -49 13 -52 10 -4 88 -3
131 1 14 1 28 56 17 67 -3 3 -6 13 -6 21 0 13 -11 17 -50 17 -27 1 -62 0 -77
-2z"/>
<path d="M5282 1042 l-43 -3 3 -52 3 -52 50 1 c108 2 138 16 128 59 -2 11 -5
26 -5 33 -1 6 -8 12 -17 13 -9 0 -29 1 -46 2 -16 1 -49 1 -73 -1z"/>
<path d="M1403 8743 c-38 -38 -90 -95 -114 -128 -48 -66 -44 -61 -109 -131
-58 -63 -198 -249 -287 -384 -122 -182 -183 -280 -175 -280 4 0 2 -4 -4 -8 -6
-4 -23 -31 -38 -60 -15 -29 -42 -76 -60 -105 -58 -92 -103 -181 -139 -274 -19
-50 -47 -117 -62 -149 -98 -211 -213 -545 -251 -723 -3 -14 -7 -28 -10 -33 -6
-9 -8 -18 -29 -128 -14 -70 -17 -85 -30 -142 -3 -13 -7 -41 -9 -63 -3 -22 -7
-56 -11 -75 -10 -58 -15 -84 -19 -107 -3 -13 -8 -62 -11 -110 -9 -111 -8 -109
-25 -163 -18 -58 -20 -840 -3 -862 13 -16 21 -71 28 -198 6 -97 13 -145 41
-273 3 -16 7 -38 8 -50 3 -26 31 -162 53 -262 20 -90 118 -433 144 -505 109
-300 410 -903 545 -1093 19 -26 34 -52 34 -57 0 -6 4 -10 8 -10 4 0 15 -12 25
-27 9 -16 32 -46 52 -68 19 -22 35 -45 35 -52 0 -7 4 -13 8 -13 4 0 15 -12 24
-28 9 -15 27 -38 40 -52 13 -14 34 -43 47 -65 35 -58 707 -731 761 -762 25
-15 65 -45 90 -68 25 -23 65 -53 90 -67 25 -14 54 -36 65 -48 23 -25 298 -208
390 -259 33 -18 67 -40 76 -47 22 -20 319 -169 366 -184 21 -7 97 -39 168 -71
132 -58 364 -140 510 -179 44 -12 103 -28 130 -36 144 -40 516 -118 615 -129
30 -4 69 -9 85 -11 137 -24 250 -29 632 -28 366 1 554 7 573 19 3 2 33 6 65
10 33 3 107 15 164 27 109 21 121 23 185 32 21 4 41 8 45 10 3 2 22 7 41 10
19 3 71 15 115 26 44 12 90 23 103 26 13 2 42 11 65 19 23 7 70 21 103 29 152
39 489 163 600 221 16 8 33 15 37 15 10 0 69 26 202 91 100 48 387 216 440
257 15 12 33 22 41 22 7 0 14 4 16 8 2 5 39 33 83 62 44 29 82 56 85 60 3 4
19 15 37 24 17 8 58 40 90 69 32 29 81 69 108 87 49 33 152 128 264 243 31 32
70 65 86 72 43 20 72 47 87 83 7 17 69 89 138 159 69 70 130 139 136 153 11
23 25 41 117 144 20 22 41 51 48 65 7 14 21 35 30 46 27 32 189 277 189 285 0
5 3 10 8 12 4 2 25 31 48 65 42 63 244 462 244 482 0 6 5 11 10 11 6 0 10 4
10 10 0 5 22 55 50 111 28 56 50 105 50 111 0 5 9 28 19 52 21 44 49 120 56
146 2 8 4 15 5 15 1 0 4 11 6 25 2 13 8 27 13 30 5 3 11 19 14 35 3 17 12 50
20 75 13 37 58 206 72 270 2 8 15 62 30 120 14 58 28 114 30 125 3 11 8 47 11
80 3 33 11 87 19 120 7 33 16 94 20 135 8 106 13 137 24 158 16 30 21 107 21
297 0 99 -1 187 -1 196 0 13 -13 16 -63 17 -34 0 -68 -3 -76 -8 -9 -5 -14 -36
-16 -93 -4 -98 -9 -134 -23 -151 -5 -6 -12 -81 -15 -166 -7 -176 -9 -205 -31
-325 -3 -16 -15 -79 -25 -140 -27 -148 -28 -151 -44 -220 -9 -33 -17 -71 -20
-85 -2 -14 -12 -51 -21 -84 -9 -32 -18 -64 -19 -70 -1 -6 -4 -15 -8 -21 -3 -5
-10 -26 -16 -45 -31 -107 -155 -457 -182 -516 -148 -317 -281 -562 -408 -754
-75 -113 -139 -207 -142 -210 -4 -3 -37 -45 -74 -95 -37 -49 -86 -110 -110
-135 -23 -25 -66 -76 -95 -115 -75 -98 -431 -456 -521 -523 -41 -31 -80 -61
-86 -67 -48 -47 -181 -146 -368 -274 -123 -84 -220 -137 -526 -290 -362 -181
-451 -218 -755 -319 -87 -29 -343 -95 -415 -106 -53 -9 -93 -16 -110 -21 -8
-2 -37 -7 -65 -11 -27 -3 -59 -8 -70 -10 -11 -2 -38 -7 -60 -9 -22 -3 -67 -10
-100 -15 -33 -5 -85 -12 -115 -15 -30 -4 -66 -9 -80 -10 -107 -15 -182 -18
-370 -18 -188 0 -332 7 -351 19 -3 2 -48 6 -100 9 -170 10 -234 16 -324 30
-16 3 -48 7 -70 10 -22 4 -47 8 -55 10 -8 2 -29 7 -47 10 -62 10 -299 65 -393
91 -175 48 -279 83 -545 186 -27 11 -56 20 -62 21 -7 0 -13 3 -13 6 0 5 -56
34 -70 36 -28 5 -518 263 -615 324 -33 21 -63 36 -68 34 -4 -2 -7 0 -7 6 0 5
-8 12 -19 16 -10 3 -38 23 -62 45 -24 22 -52 42 -61 46 -10 3 -18 9 -18 14 0
5 -9 12 -20 15 -11 4 -35 20 -53 37 -17 16 -57 47 -89 68 -31 21 -71 51 -90
68 -63 57 -82 72 -125 100 -56 35 -505 487 -528 531 -9 19 -27 44 -39 55 -30
31 -75 87 -156 196 -39 52 -77 102 -83 111 -7 8 -16 23 -22 32 -5 9 -22 33
-36 54 -14 21 -39 58 -55 83 -16 25 -31 47 -34 50 -44 43 -291 524 -360 701
-12 30 -28 68 -36 84 -27 58 -119 324 -125 360 -1 6 -6 21 -11 35 -5 14 -21
68 -34 120 -14 52 -27 102 -29 110 -2 8 -11 44 -20 80 -8 36 -17 72 -19 80
-13 50 -42 204 -52 280 -2 19 -7 51 -10 70 -3 19 -7 49 -10 65 -8 55 -15 198
-19 403 -4 159 -8 208 -20 225 -20 29 -20 126 0 154 12 17 17 61 21 180 6 206
10 264 18 290 4 11 8 34 11 49 2 16 6 52 10 79 8 59 9 68 29 160 8 39 17 84
19 100 3 17 12 57 20 90 9 33 28 110 43 170 23 95 83 284 117 365 5 14 11 30
12 36 2 6 10 27 18 45 9 19 30 70 47 114 18 44 37 91 42 105 6 14 12 30 13 36
2 6 13 33 26 60 12 27 23 51 24 54 3 14 90 173 123 225 14 22 46 78 70 125 25
47 49 88 54 91 5 3 9 9 8 13 -1 7 145 231 165 252 5 6 30 39 55 73 25 34 66
88 91 119 25 31 54 71 65 87 25 40 66 86 208 231 66 68 121 131 122 141 4 28
-24 78 -55 96 -51 30 -73 23 -148 -50z"/>
</g>
</svg>
